<svg width="88" height="88" viewBox="0 0 88 88" fill="none" xmlns="http://www.w3.org/2000/svg">
  <rect width="88" height="88" rx="44" fill="#DCE1E7"/>
  <rect y="56" width="88" height="32" fill="#BFD0DC"/>
  <circle cx="44" cy="34" r="16" fill="#C78D63"/>
  <path d="M26 76C29 61 37 55 44 55C51 55 59 61 62 76H26Z" fill="#F3F5F8"/>
  <path d="M28 34C28 22 35 15 44 15C53 15 60 22 60 34V37H28V34Z" fill="#2C2A30"/>
  <path d="M31 31C34 22 39 19 44 19C49 19 54 22 57 31L58 40H30L31 31Z" fill="#18171B"/>
  <circle cx="39" cy="35" r="1.5" fill="#1C1714"/>
  <circle cx="49" cy="35" r="1.5" fill="#1C1714"/>
  <path d="M40 42C42 43.5 46 43.5 48 42" stroke="#8B5A43" stroke-width="2" stroke-linecap="round"/>
</svg>
