<svg width="88" height="88" viewBox="0 0 88 88" fill="none" xmlns="http://www.w3.org/2000/svg">
  <rect width="88" height="88" rx="44" fill="#D5DFE7"/>
  <rect y="56" width="88" height="32" fill="#C5D5E1"/>
  <circle cx="44" cy="34" r="16" fill="#B98359"/>
  <path d="M26 76C29 61 37 55 44 55C51 55 59 61 62 76H26Z" fill="#EEF2F6"/>
  <path d="M28 34C28 22 35 14 44 14C53 14 60 22 60 34V39H28V34Z" fill="#3A302D"/>
  <path d="M30 30C34 22 39 19 44 19C49 19 55 22 58 30L59 40H29L30 30Z" fill="#231B1A"/>
  <circle cx="39" cy="35" r="1.5" fill="#1F1714"/>
  <circle cx="49" cy="35" r="1.5" fill="#1F1714"/>
  <path d="M40 42C42 43.5 46 43.5 48 42" stroke="#84584A" stroke-width="2" stroke-linecap="round"/>
</svg>
