<svg width="88" height="88" viewBox="0 0 88 88" fill="none" xmlns="http://www.w3.org/2000/svg">
  <rect width="88" height="88" rx="44" fill="#D9DCE8"/>
  <rect y="56" width="88" height="32" fill="#C4CBDD"/>
  <circle cx="44" cy="34" r="16" fill="#F2C9B2"/>
  <path d="M28 75C31 61 38 55 44 55C50 55 57 61 60 75H28Z" fill="#FBF8F3"/>
  <path d="M29 33C29 23 35 16 44 16C53 16 59 23 59 33V37H29V33Z" fill="#6B4A3E"/>
  <path d="M34 27C35 22 39 19 44 19C49 19 53 22 54 27L56 39H32L34 27Z" fill="#3A2B2B"/>
  <circle cx="38.5" cy="35" r="1.5" fill="#31211F"/>
  <circle cx="49.5" cy="35" r="1.5" fill="#31211F"/>
  <path d="M40 42C42 43.5 46 43.5 48 42" stroke="#A16861" stroke-width="2" stroke-linecap="round"/>
</svg>
